<svg xmlns="http://www.w3.org/2000/svg" width="64" height="64" viewBox="0 0 64 64" fill="none">
  <defs>
    <linearGradient id="formonexGradient1" x1="0%" y1="0%" x2="100%" y2="100%">
      <stop offset="0%" stop-color="#3B82F6"/>
      <stop offset="50%" stop-color="#6366F1"/>
      <stop offset="100%" stop-color="#8B5CF6"/>
    </linearGradient>
    <linearGradient id="formonexGradient2" x1="0%" y1="0%" x2="100%" y2="100%">
      <stop offset="0%" stop-color="#10B981"/>
      <stop offset="100%" stop-color="#059669"/>
    </linearGradient>
    <filter id="shadow" x="-50%" y="-50%" width="200%" height="200%">
      <feDropShadow dx="0" dy="2" flood-color="#000000" flood-opacity="0.25" stdDeviation="2"/>
    </filter>
  </defs>
  
  <!-- Background Circle -->
  <circle cx="32" cy="32" r="30" fill="url(#formonexGradient1)" filter="url(#shadow)"/>
  
  <!-- Letter F Design -->
  <g transform="translate(32, 32)">
    <!-- Main F Structure -->
    <path d="M-8 -12 L-8 12 L-6 12 L-6 2 L2 2 L2 0 L-6 0 L-6 -6 L4 -6 L4 -8 L-6 -8 L-6 -12 Z" 
          fill="white" 
          opacity="0.95"/>
    
    <!-- Accent Elements -->
    <circle cx="6" cy="-8" r="2" fill="url(#formonexGradient2)" opacity="0.8"/>
    <circle cx="8" cy="8" r="1.5" fill="white" opacity="0.7"/>
    
    <!-- Tech Elements -->
    <rect x="4" y="-2" width="6" height="1" rx="0.5" fill="url(#formonexGradient2)" opacity="0.6"/>
    <rect x="4" y="4" width="4" height="1" rx="0.5" fill="white" opacity="0.5"/>
    
    <!-- Connection Lines -->
    <path d="M-2 -10 L6 -10 M-2 6 L6 6" 
          stroke="white" 
          stroke-width="0.5" 
          opacity="0.4" 
          stroke-linecap="round"/>
  </g>
  
  <!-- Corner Accents -->
  <circle cx="8" cy="8" r="1" fill="url(#formonexGradient2)" opacity="0.3"/>
  <circle cx="56" cy="56" r="1" fill="white" opacity="0.3"/>
</svg>